<svg xmlns="http://www.w3.org/2000/svg" xmlns:xlink="http://www.w3.org/1999/xlink" width="500" zoomAndPan="magnify" viewBox="0 0 375 374.999991" height="500" preserveAspectRatio="xMidYMid meet" version="1.0"><defs><g/></defs><g fill="#ff4d52" fill-opacity="1"><g transform="translate(3.410161, 213.856685)"><g><path d="M 34.921875 -5.734375 L 2.328125 -20.21875 L 2.328125 -25.765625 L 34.921875 -42.078125 L 34.921875 -32.5 L 14.9375 -23.375 L 34.921875 -15.25 Z M 34.921875 -5.734375 "/></g></g></g><g fill="#ff4d52" fill-opacity="1"><g transform="translate(40.780645, 213.856685)"><g><path d="M 24.03125 -27.609375 L 44.375 -27.609375 L 44.375 -2.1875 C 38.851562 -0.300781 32.78125 0.640625 26.15625 0.640625 C 18.882812 0.640625 13.265625 -1.460938 9.296875 -5.671875 C 5.335938 -9.890625 3.359375 -15.898438 3.359375 -23.703125 C 3.359375 -31.316406 5.523438 -37.238281 9.859375 -41.46875 C 14.203125 -45.707031 20.289062 -47.828125 28.125 -47.828125 C 31.09375 -47.828125 33.890625 -47.546875 36.515625 -46.984375 C 39.148438 -46.429688 41.445312 -45.722656 43.40625 -44.859375 L 39.375 -34.859375 C 35.976562 -36.535156 32.25 -37.375 28.1875 -37.375 C 24.46875 -37.375 21.59375 -36.164062 19.5625 -33.75 C 17.53125 -31.332031 16.515625 -27.875 16.515625 -23.375 C 16.515625 -18.96875 17.429688 -15.609375 19.265625 -13.296875 C 21.109375 -10.992188 23.757812 -9.84375 27.21875 -9.84375 C 29.113281 -9.84375 30.851562 -10.023438 32.4375 -10.390625 L 32.4375 -17.765625 L 24.03125 -17.765625 Z M 24.03125 -27.609375 "/></g></g></g><g fill="#ff4d52" fill-opacity="1"><g transform="translate(89.662134, 213.856685)"><g><path d="M 28.1875 0 L 25.765625 -4.84375 L 25.515625 -4.84375 C 23.816406 -2.726562 22.082031 -1.285156 20.3125 -0.515625 C 18.550781 0.253906 16.273438 0.640625 13.484375 0.640625 C 10.046875 0.640625 7.335938 -0.390625 5.359375 -2.453125 C 3.378906 -4.515625 2.390625 -7.414062 2.390625 -11.15625 C 2.390625 -15.050781 3.742188 -17.945312 6.453125 -19.84375 C 9.160156 -21.75 13.082031 -22.820312 18.21875 -23.0625 L 24.3125 -23.25 L 24.3125 -23.765625 C 24.3125 -26.773438 22.828125 -28.28125 19.859375 -28.28125 C 17.191406 -28.28125 13.804688 -27.378906 9.703125 -25.578125 L 6.0625 -33.890625 C 10.320312 -36.085938 15.695312 -37.1875 22.1875 -37.1875 C 26.875 -37.1875 30.5 -36.023438 33.0625 -33.703125 C 35.632812 -31.378906 36.921875 -28.132812 36.921875 -23.96875 L 36.921875 0 Z M 18.828125 -8.25 C 20.359375 -8.25 21.664062 -8.734375 22.75 -9.703125 C 23.832031 -10.671875 24.375 -11.929688 24.375 -13.484375 L 24.375 -16.3125 L 21.484375 -16.1875 C 17.328125 -16.039062 15.25 -14.515625 15.25 -11.609375 C 15.25 -9.367188 16.441406 -8.25 18.828125 -8.25 Z M 18.828125 -8.25 "/></g></g></g><g fill="#ff4d52" fill-opacity="1"><g transform="translate(130.805129, 213.856685)"><g><path d="M 26.671875 -37.1875 C 30.648438 -37.1875 33.804688 -35.519531 36.140625 -32.1875 C 38.472656 -28.851562 39.640625 -24.238281 39.640625 -18.34375 C 39.640625 -12.414062 38.460938 -7.769531 36.109375 -4.40625 C 33.753906 -1.039062 30.476562 0.640625 26.28125 0.640625 C 24.925781 0.640625 23.722656 0.492188 22.671875 0.203125 C 21.617188 -0.078125 20.675781 -0.476562 19.84375 -1 C 19.019531 -1.519531 18.0625 -2.378906 16.96875 -3.578125 L 16.1875 -3.578125 L 14.1875 0 L 4.359375 0 L 4.359375 -50.1875 L 16.96875 -50.1875 L 16.96875 -38.828125 C 16.96875 -37.472656 16.816406 -35.140625 16.515625 -31.828125 L 16.96875 -31.828125 C 18.1875 -33.722656 19.597656 -35.085938 21.203125 -35.921875 C 22.804688 -36.765625 24.628906 -37.1875 26.671875 -37.1875 Z M 22.0625 -27.28125 C 20.300781 -27.28125 19.007812 -26.664062 18.1875 -25.4375 C 17.375 -24.21875 16.96875 -22.296875 16.96875 -19.671875 L 16.96875 -17.90625 C 16.96875 -14.914062 17.375 -12.769531 18.1875 -11.46875 C 19.007812 -10.164062 20.34375 -9.515625 22.1875 -9.515625 C 23.664062 -9.515625 24.800781 -10.269531 25.59375 -11.78125 C 26.394531 -13.300781 26.796875 -15.535156 26.796875 -18.484375 C 26.796875 -24.347656 25.21875 -27.28125 22.0625 -27.28125 Z M 22.0625 -27.28125 "/></g></g></g><g fill="#ff4d52" fill-opacity="1"><g transform="translate(173.270122, 213.856685)"><g><path d="M 26.40625 -37.1875 C 27.507812 -37.1875 28.554688 -37.097656 29.546875 -36.921875 L 30.25 -36.796875 L 29.125 -24.890625 C 28.09375 -25.148438 26.660156 -25.28125 24.828125 -25.28125 C 22.078125 -25.28125 20.078125 -24.648438 18.828125 -23.390625 C 17.585938 -22.140625 16.96875 -20.332031 16.96875 -17.96875 L 16.96875 0 L 4.359375 0 L 4.359375 -36.53125 L 13.734375 -36.53125 L 15.703125 -30.703125 L 16.3125 -30.703125 C 17.375 -32.640625 18.84375 -34.203125 20.71875 -35.390625 C 22.601562 -36.585938 24.5 -37.1875 26.40625 -37.1875 Z M 26.40625 -37.1875 "/></g></g></g><g fill="#ff4d52" fill-opacity="1"><g transform="translate(204.256338, 213.856685)"><g><path d="M 17.03125 0 L 4.421875 0 L 4.421875 -36.53125 L 17.03125 -36.53125 Z M 4.09375 -45.640625 C 4.09375 -47.523438 4.617188 -48.929688 5.671875 -49.859375 C 6.722656 -50.785156 8.421875 -51.25 10.765625 -51.25 C 13.109375 -51.25 14.816406 -50.773438 15.890625 -49.828125 C 16.972656 -48.878906 17.515625 -47.484375 17.515625 -45.640625 C 17.515625 -41.941406 15.265625 -40.09375 10.765625 -40.09375 C 6.316406 -40.09375 4.09375 -41.941406 4.09375 -45.640625 Z M 4.09375 -45.640625 "/></g></g></g><g fill="#ff4d52" fill-opacity="1"><g transform="translate(225.730671, 213.856685)"><g><path d="M 22 0.640625 C 15.914062 0.640625 11.191406 -0.972656 7.828125 -4.203125 C 4.460938 -7.441406 2.78125 -12.050781 2.78125 -18.03125 C 2.78125 -24.195312 4.335938 -28.929688 7.453125 -32.234375 C 10.566406 -35.535156 15.015625 -37.1875 20.796875 -37.1875 C 26.304688 -37.1875 30.554688 -35.75 33.546875 -32.875 C 36.546875 -30.007812 38.046875 -25.878906 38.046875 -20.484375 L 38.046875 -14.859375 L 15.515625 -14.859375 C 15.597656 -12.816406 16.34375 -11.21875 17.75 -10.0625 C 19.15625 -8.90625 21.078125 -8.328125 23.515625 -8.328125 C 25.722656 -8.328125 27.753906 -8.535156 29.609375 -8.953125 C 31.472656 -9.367188 33.492188 -10.082031 35.671875 -11.09375 L 35.671875 -2.03125 C 33.691406 -1.019531 31.644531 -0.320312 29.53125 0.0625 C 27.425781 0.445312 24.914062 0.640625 22 0.640625 Z M 21.25 -28.609375 C 19.769531 -28.609375 18.53125 -28.140625 17.53125 -27.203125 C 16.53125 -26.265625 15.941406 -24.796875 15.765625 -22.796875 L 26.609375 -22.796875 C 26.566406 -24.554688 26.066406 -25.960938 25.109375 -27.015625 C 24.148438 -28.078125 22.863281 -28.609375 21.25 -28.609375 Z M 21.25 -28.609375 "/></g></g></g><g fill="#ff4d52" fill-opacity="1"><g transform="translate(266.55124, 213.856685)"><g><path d="M 16.96875 0 L 4.359375 0 L 4.359375 -50.1875 L 16.96875 -50.1875 Z M 16.96875 0 "/></g></g></g><g fill="#ff4d52" fill-opacity="1"><g transform="translate(287.896576, 213.856685)"><g/></g></g><g fill="#ff4d52" fill-opacity="1"><g transform="translate(305.050238, 213.856685)"><g><path d="M 29.0625 -47.828125 L 11.484375 0.640625 L 0.328125 0.640625 L 17.90625 -47.828125 Z M 29.0625 -47.828125 "/></g></g></g><g fill="#ff4d52" fill-opacity="1"><g transform="translate(334.230817, 213.856685)"><g><path d="M 2.328125 -15.25 L 22.3125 -23.375 L 2.328125 -32.5 L 2.328125 -42.078125 L 34.921875 -25.765625 L 34.921875 -20.21875 L 2.328125 -5.734375 Z M 2.328125 -15.25 "/></g></g></g></svg>