<?xml version="1.0" encoding="iso-8859-1"?>
<!-- Uploaded to: SVG Repo, www.svgrepo.com, Generator: SVG Repo Mixer Tools -->
<svg height="800px" width="800px" version="1.1" id="Layer_1" xmlns="http://www.w3.org/2000/svg" xmlns:xlink="http://www.w3.org/1999/xlink" 
	 viewBox="0 0 512 512" xml:space="preserve">
<g transform="translate(1)">
	<path style="fill:#FFE100;" d="M475.16,503.467H34.84c-15.36,0-27.307-11.947-27.307-27.307V35.84
		c0-15.36,11.947-27.307,27.307-27.307h439.467c16.213,0,28.16,11.947,28.16,27.307v440.32
		C502.467,491.52,490.52,503.467,475.16,503.467"/>
	<path style="fill:#FFA800;" d="M475.16,8.533h-25.6c15.36,0,27.307,11.947,27.307,27.307v440.32
		c0,15.36-11.947,27.307-27.307,27.307h25.6c15.36,0,27.307-11.947,27.307-27.307V35.84C502.467,20.48,490.52,8.533,475.16,8.533"/>
	<path style="fill:#FFFFFF;" d="M34.84,8.533h25.6c-15.36,0-27.307,11.947-27.307,27.307v440.32
		c0,15.36,11.947,27.307,27.307,27.307h-25.6c-15.36,0-27.307-11.947-27.307-27.307V35.84C7.533,20.48,19.48,8.533,34.84,8.533"/>
	<path style="fill:#63D3FD;" d="M58.733,424.96V87.04c0-15.36,11.947-27.307,27.307-27.307h337.92
		c15.36,0,27.307,11.947,27.307,27.307v337.92c0,15.36-11.947,27.307-27.307,27.307H86.04
		C70.68,452.267,58.733,440.32,58.733,424.96"/>
	<path style="fill:#3DB9F9;" d="M423.96,59.733h-25.6c15.36,0,27.307,11.947,27.307,27.307v337.92
		c0,15.36-11.947,27.307-27.307,27.307h25.6c15.36,0,27.307-11.947,27.307-27.307V87.04C451.267,71.68,439.32,59.733,423.96,59.733"
		/>
	<path d="M475.16,512H34.84C15.213,512-1,495.787-1,476.16V35.84C-1,16.213,15.213,0,34.84,0h439.467
		C494.787,0,511,16.213,511,35.84v440.32C511,495.787,494.787,512,475.16,512z M34.84,17.067c-10.24,0-18.773,8.533-18.773,18.773
		v440.32c0,10.24,8.533,18.773,18.773,18.773h439.467c10.24,0,18.773-8.533,18.773-18.773V35.84
		c0.853-10.24-7.68-18.773-17.92-18.773H34.84z"/>
	<path d="M423.96,460.8H86.04c-19.627,0-35.84-16.213-35.84-35.84V87.04c0-19.627,16.213-35.84,35.84-35.84h337.92
		c19.627,0,35.84,16.213,35.84,35.84v337.92C459.8,444.587,443.587,460.8,423.96,460.8z M86.04,68.267
		c-10.24,0-18.773,8.533-18.773,18.773v337.92c0,10.24,8.533,18.773,18.773,18.773h337.92c10.24,0,18.773-8.533,18.773-18.773V87.04
		c0-10.24-8.533-18.773-18.773-18.773H86.04z"/>
	<path d="M220.867,401.067c-5.12,0-8.533-3.413-8.533-8.533V128c0-5.12,3.413-8.533,8.533-8.533c5.12,0,8.533,3.413,8.533,8.533
		v264.533C229.4,397.653,225.987,401.067,220.867,401.067z"/>
	<path d="M255,307.2h-34.133c-5.12,0-8.533-3.413-8.533-8.533s3.413-8.533,8.533-8.533H255c42.667,0,76.8-34.133,76.8-76.8
		s-34.133-76.8-76.8-76.8h-34.133c-5.12,0-8.533-3.413-8.533-8.533c0-5.12,3.413-8.533,8.533-8.533H255
		c52.053,0,93.867,41.813,93.867,93.867S307.053,307.2,255,307.2z"/>
</g>
</svg>